<svg xmlns="http://www.w3.org/2000/svg" xmlns:xlink="http://www.w3.org/1999/xlink" width="500" zoomAndPan="magnify" viewBox="0 0 375 374.999991" height="500" preserveAspectRatio="xMidYMid meet" version="1.0"><defs><clipPath id="3a2546d0eb"><path d="M 105.148438 84.25 L 270.148438 84.25 L 270.148438 290.5 L 105.148438 290.5 Z M 105.148438 84.25 " clip-rule="nonzero"/></clipPath><clipPath id="974d7a9f07"><path d="M 220.21875 246.207031 L 220.21875 214.410156 L 143.316406 214.410156 L 143.316406 232.753906 C 148.023438 233.617188 151.886719 236.878906 153.59375 241.21875 L 182.039062 241.21875 C 183.597656 239.066406 186.132812 237.664062 189 237.664062 C 193.730469 237.664062 197.566406 241.492188 197.566406 246.207031 C 197.566406 250.925781 193.730469 254.753906 189 254.753906 C 186.132812 254.753906 183.597656 253.351562 182.039062 251.199219 L 153.59375 251.199219 C 152.574219 253.796875 150.78125 256.003906 148.496094 257.546875 C 149.746094 260.042969 151.394531 262.3125 153.355469 264.269531 C 158.007812 268.90625 164.421875 271.789062 171.472656 271.789062 L 222.902344 271.789062 C 224.902344 266.699219 229.871094 263.09375 235.683594 263.09375 C 241.5 263.09375 246.464844 266.699219 248.464844 271.789062 L 248.46875 271.789062 C 249.074219 273.332031 249.410156 275.015625 249.410156 276.777344 C 249.410156 284.332031 243.265625 290.457031 235.683594 290.457031 C 229.871094 290.457031 224.902344 286.855469 222.902344 281.765625 L 171.472656 281.765625 C 161.660156 281.765625 152.742188 277.765625 146.28125 271.324219 C 142.96875 268.023438 140.296875 264.074219 138.484375 259.691406 C 132.769531 258.722656 128.261719 254.226562 127.285156 248.527344 C 122.890625 246.71875 118.933594 244.0625 115.621094 240.757812 C 109.160156 234.316406 105.148438 225.425781 105.148438 215.644531 C 105.148438 209.066406 106.96875 202.886719 110.132812 197.582031 C 111.03125 196.070312 112.042969 194.628906 113.152344 193.273438 C 112.671875 191.878906 112.410156 190.386719 112.410156 188.832031 C 112.410156 186.53125 112.980469 184.367188 113.984375 182.464844 C 112.546875 180.824219 111.253906 179.050781 110.132812 177.167969 C 106.96875 171.863281 105.148438 165.679688 105.148438 159.105469 C 105.148438 149.324219 109.160156 140.433594 115.621094 133.992188 C 118.933594 130.6875 122.890625 128.03125 127.285156 126.21875 C 128.261719 120.523438 132.769531 116.027344 138.484375 115.054688 C 140.296875 110.675781 142.96875 106.726562 146.28125 103.425781 C 152.742188 96.980469 161.660156 92.984375 171.472656 92.984375 L 222.902344 92.984375 C 224.902344 87.898438 229.871094 84.289062 235.683594 84.289062 C 241.5 84.289062 246.464844 87.898438 248.464844 92.984375 L 248.46875 92.984375 C 249.074219 94.53125 249.410156 96.210938 249.410156 97.972656 C 249.410156 99.734375 249.074219 101.417969 248.46875 102.960938 L 248.46875 102.964844 L 248.464844 102.964844 C 246.464844 108.054688 241.5 111.65625 235.683594 111.65625 C 229.871094 111.65625 224.902344 108.050781 222.902344 102.964844 L 171.472656 102.964844 C 164.421875 102.964844 158.007812 105.84375 153.355469 110.480469 C 151.394531 112.4375 149.746094 114.707031 148.496094 117.203125 C 150.78125 118.746094 152.574219 120.957031 153.59375 123.550781 L 182.039062 123.550781 C 183.597656 121.398438 186.132812 119.996094 189 119.996094 C 193.730469 119.996094 197.566406 123.820312 197.566406 128.539062 C 197.566406 133.257812 193.730469 137.082031 189 137.082031 C 186.132812 137.082031 183.597656 135.683594 182.039062 133.53125 L 153.59375 133.53125 C 151.886719 137.871094 148.023438 141.128906 143.316406 141.992188 L 143.316406 160.339844 L 202.519531 160.339844 C 203.535156 157.605469 206.171875 155.65625 209.269531 155.65625 C 213.246094 155.65625 216.46875 158.871094 216.46875 162.835938 C 216.46875 163.710938 216.308594 164.550781 216.023438 165.328125 C 215.007812 168.066406 212.367188 170.011719 209.269531 170.011719 C 206.171875 170.011719 203.535156 168.066406 202.519531 165.328125 L 138.308594 165.328125 L 138.308594 141.992188 C 134.628906 141.320312 131.460938 139.179688 129.441406 136.199219 C 126.933594 137.449219 124.660156 139.089844 122.699219 141.046875 C 118.042969 145.683594 115.15625 152.078125 115.15625 159.105469 C 115.15625 163.847656 116.460938 168.292969 118.734375 172.101562 C 119.546875 173.464844 120.484375 174.75 121.53125 175.941406 C 122.96875 175.429688 124.519531 175.148438 126.136719 175.148438 C 132.859375 175.148438 138.453125 179.972656 139.632812 186.335938 L 232.917969 186.335938 L 232.917969 135.273438 C 230.175781 134.257812 228.222656 131.625 228.222656 128.539062 C 228.222656 124.578125 231.445312 121.363281 235.421875 121.363281 C 239.394531 121.363281 242.621094 124.578125 242.621094 128.539062 C 242.621094 131.625 240.664062 134.257812 237.921875 135.273438 L 237.921875 160.339844 L 256.199219 160.339844 C 257.214844 157.605469 259.855469 155.65625 262.949219 155.65625 C 266.925781 155.65625 270.148438 158.871094 270.148438 162.835938 C 270.148438 166.800781 266.925781 170.011719 262.949219 170.011719 C 259.855469 170.011719 257.214844 168.066406 256.199219 165.328125 L 237.921875 165.328125 L 237.921875 191.324219 L 139.628906 191.324219 C 138.453125 197.691406 132.859375 202.515625 126.136719 202.515625 C 123.855469 202.515625 121.707031 201.960938 119.816406 200.980469 C 119.433594 201.523438 119.074219 202.078125 118.734375 202.648438 C 116.460938 206.457031 115.160156 210.902344 115.160156 215.644531 C 115.160156 222.671875 118.042969 229.066406 122.699219 233.703125 C 124.660156 235.660156 126.933594 237.300781 129.441406 238.550781 C 131.460938 235.574219 134.628906 233.429688 138.308594 232.753906 L 138.308594 209.421875 L 243.542969 209.421875 C 244.558594 206.683594 247.199219 204.738281 250.292969 204.738281 C 253.390625 204.738281 256.03125 206.683594 257.046875 209.421875 C 257.335938 210.199219 257.492188 211.039062 257.492188 211.914062 C 257.492188 212.792969 257.335938 213.632812 257.046875 214.410156 C 256.03125 217.144531 253.390625 219.09375 250.292969 219.09375 C 247.199219 219.09375 244.558594 217.144531 243.542969 214.410156 L 225.222656 214.410156 L 225.222656 243.714844 L 256.199219 243.714844 C 257.214844 240.980469 259.855469 239.03125 262.949219 239.03125 C 266.925781 239.03125 270.148438 242.246094 270.148438 246.207031 C 270.148438 250.171875 266.925781 253.386719 262.949219 253.386719 C 259.855469 253.386719 257.214844 251.4375 256.199219 248.703125 L 220.21875 248.703125 Z M 220.21875 246.207031 " clip-rule="evenodd"/></clipPath><linearGradient x1="1088.807753" gradientTransform="matrix(0.0235775, 0, 0, 0.0235059, 105.148737, 84.290828)" y1="9361.58368" x2="6356.906572" gradientUnits="userSpaceOnUse" y2="-347.950913" id="54d8597f33"><stop stop-opacity="1" stop-color="rgb(18.502808%, 37.637329%, 66.957092%)" offset="0"/><stop stop-opacity="1" stop-color="rgb(18.55011%, 37.89978%, 67.13562%)" offset="0.00390625"/><stop stop-opacity="1" stop-color="rgb(18.598938%, 38.163757%, 67.314148%)" offset="0.0078125"/><stop stop-opacity="1" stop-color="rgb(18.64624%, 38.426208%, 67.492676%)" offset="0.0117188"/><stop stop-opacity="1" stop-color="rgb(18.695068%, 38.690186%, 67.671204%)" offset="0.015625"/><stop stop-opacity="1" stop-color="rgb(18.743896%, 38.952637%, 67.849731%)" offset="0.0195313"/><stop stop-opacity="1" stop-color="rgb(18.792725%, 39.215088%, 68.028259%)" offset="0.0234375"/><stop stop-opacity="1" stop-color="rgb(18.840027%, 39.477539%, 68.206787%)" offset="0.0273438"/><stop stop-opacity="1" stop-color="rgb(18.888855%, 39.741516%, 68.385315%)" offset="0.03125"/><stop stop-opacity="1" stop-color="rgb(18.936157%, 40.003967%, 68.563843%)" offset="0.0351563"/><stop stop-opacity="1" stop-color="rgb(18.984985%, 40.267944%, 68.742371%)" offset="0.0390625"/><stop stop-opacity="1" stop-color="rgb(19.032288%, 40.530396%, 68.920898%)" offset="0.0429688"/><stop stop-opacity="1" stop-color="rgb(19.081116%, 40.792847%, 69.099426%)" offset="0.046875"/><stop stop-opacity="1" stop-color="rgb(19.129944%, 41.055298%, 69.277954%)" offset="0.0507813"/><stop stop-opacity="1" stop-color="rgb(19.178772%, 41.319275%, 69.456482%)" offset="0.0546875"/><stop stop-opacity="1" stop-color="rgb(19.226074%, 41.581726%, 69.633484%)" offset="0.0585938"/><stop stop-opacity="1" stop-color="rgb(19.274902%, 41.845703%, 69.812012%)" offset="0.0625"/><stop stop-opacity="1" stop-color="rgb(19.322205%, 42.108154%, 69.99054%)" offset="0.0664063"/><stop stop-opacity="1" stop-color="rgb(19.371033%, 42.370605%, 70.169067%)" offset="0.0703125"/><stop stop-opacity="1" stop-color="rgb(19.419861%, 42.633057%, 70.347595%)" offset="0.0742187"/><stop stop-opacity="1" stop-color="rgb(19.468689%, 42.897034%, 70.526123%)" offset="0.078125"/><stop stop-opacity="1" stop-color="rgb(19.515991%, 43.159485%, 70.704651%)" offset="0.0820313"/><stop stop-opacity="1" stop-color="rgb(19.564819%, 43.423462%, 70.883179%)" offset="0.0859375"/><stop stop-opacity="1" stop-color="rgb(19.612122%, 43.685913%, 71.061707%)" offset="0.0898438"/><stop stop-opacity="1" stop-color="rgb(19.66095%, 43.948364%, 71.240234%)" offset="0.09375"/><stop stop-opacity="1" stop-color="rgb(19.709778%, 44.210815%, 71.418762%)" offset="0.0976563"/><stop stop-opacity="1" stop-color="rgb(19.758606%, 44.474792%, 71.59729%)" offset="0.101563"/><stop stop-opacity="1" stop-color="rgb(19.805908%, 44.737244%, 71.775818%)" offset="0.105469"/><stop stop-opacity="1" stop-color="rgb(19.854736%, 45.001221%, 71.954346%)" offset="0.109375"/><stop stop-opacity="1" stop-color="rgb(19.902039%, 45.263672%, 72.132874%)" offset="0.113281"/><stop stop-opacity="1" stop-color="rgb(19.950867%, 45.527649%, 72.311401%)" offset="0.117188"/><stop stop-opacity="1" stop-color="rgb(19.999695%, 45.7901%, 72.489929%)" offset="0.121094"/><stop stop-opacity="1" stop-color="rgb(20.048523%, 46.052551%, 72.668457%)" offset="0.125"/><stop stop-opacity="1" stop-color="rgb(20.095825%, 46.315002%, 72.845459%)" offset="0.128906"/><stop stop-opacity="1" stop-color="rgb(20.144653%, 46.578979%, 73.023987%)" offset="0.132813"/><stop stop-opacity="1" stop-color="rgb(20.191956%, 46.841431%, 73.202515%)" offset="0.136719"/><stop stop-opacity="1" stop-color="rgb(20.240784%, 47.105408%, 73.381042%)" offset="0.140625"/><stop stop-opacity="1" stop-color="rgb(20.288086%, 47.367859%, 73.55957%)" offset="0.144531"/><stop stop-opacity="1" stop-color="rgb(20.336914%, 47.63031%, 73.738098%)" offset="0.148438"/><stop stop-opacity="1" stop-color="rgb(20.385742%, 47.892761%, 73.916626%)" offset="0.152344"/><stop stop-opacity="1" stop-color="rgb(20.43457%, 48.156738%, 74.095154%)" offset="0.15625"/><stop stop-opacity="1" stop-color="rgb(20.481873%, 48.419189%, 74.273682%)" offset="0.160156"/><stop stop-opacity="1" stop-color="rgb(20.530701%, 48.683167%, 74.452209%)" offset="0.164063"/><stop stop-opacity="1" stop-color="rgb(20.578003%, 48.945618%, 74.630737%)" offset="0.167969"/><stop stop-opacity="1" stop-color="rgb(20.626831%, 49.208069%, 74.809265%)" offset="0.171875"/><stop stop-opacity="1" stop-color="rgb(20.675659%, 49.47052%, 74.987793%)" offset="0.175781"/><stop stop-opacity="1" stop-color="rgb(20.724487%, 49.734497%, 75.166321%)" offset="0.179688"/><stop stop-opacity="1" stop-color="rgb(20.77179%, 49.996948%, 75.344849%)" offset="0.183594"/><stop stop-opacity="1" stop-color="rgb(20.820618%, 50.260925%, 75.523376%)" offset="0.1875"/><stop stop-opacity="1" stop-color="rgb(20.86792%, 50.523376%, 75.701904%)" offset="0.191406"/><stop stop-opacity="1" stop-color="rgb(20.916748%, 50.785828%, 75.880432%)" offset="0.195313"/><stop stop-opacity="1" stop-color="rgb(20.965576%, 51.048279%, 76.057434%)" offset="0.199219"/><stop stop-opacity="1" stop-color="rgb(21.014404%, 51.312256%, 76.235962%)" offset="0.203125"/><stop stop-opacity="1" stop-color="rgb(21.061707%, 51.574707%, 76.41449%)" offset="0.207031"/><stop stop-opacity="1" stop-color="rgb(21.110535%, 51.838684%, 76.593018%)" offset="0.210937"/><stop stop-opacity="1" stop-color="rgb(21.157837%, 52.101135%, 76.771545%)" offset="0.214844"/><stop stop-opacity="1" stop-color="rgb(21.206665%, 52.363586%, 76.950073%)" offset="0.21875"/><stop stop-opacity="1" stop-color="rgb(21.255493%, 52.626038%, 77.128601%)" offset="0.222656"/><stop stop-opacity="1" stop-color="rgb(21.304321%, 52.890015%, 77.307129%)" offset="0.226563"/><stop stop-opacity="1" stop-color="rgb(21.351624%, 53.152466%, 77.485657%)" offset="0.230469"/><stop stop-opacity="1" stop-color="rgb(21.400452%, 53.416443%, 77.664185%)" offset="0.234375"/><stop stop-opacity="1" stop-color="rgb(21.447754%, 53.678894%, 77.842712%)" offset="0.238281"/><stop stop-opacity="1" stop-color="rgb(21.496582%, 53.941345%, 78.02124%)" offset="0.242187"/><stop stop-opacity="1" stop-color="rgb(21.543884%, 54.203796%, 78.199768%)" offset="0.246094"/><stop stop-opacity="1" stop-color="rgb(21.592712%, 54.467773%, 78.378296%)" offset="0.25"/><stop stop-opacity="1" stop-color="rgb(21.620178%, 54.606628%, 78.471375%)" offset="0.257812"/><stop stop-opacity="1" stop-color="rgb(21.673584%, 54.878235%, 78.652954%)" offset="0.265625"/><stop stop-opacity="1" stop-color="rgb(21.723938%, 55.140686%, 78.82843%)" offset="0.273438"/><stop stop-opacity="1" stop-color="rgb(21.775818%, 55.404663%, 79.005432%)" offset="0.28125"/><stop stop-opacity="1" stop-color="rgb(21.826172%, 55.667114%, 79.182434%)" offset="0.289063"/><stop stop-opacity="1" stop-color="rgb(21.878052%, 55.931091%, 79.35791%)" offset="0.296875"/><stop stop-opacity="1" stop-color="rgb(21.929932%, 56.193542%, 79.534912%)" offset="0.302121"/><stop stop-opacity="1" stop-color="rgb(21.955872%, 56.324768%, 79.623413%)" offset="0.304688"/><stop stop-opacity="1" stop-color="rgb(21.980286%, 56.455994%, 79.710388%)" offset="0.3125"/><stop stop-opacity="1" stop-color="rgb(22.032166%, 56.719971%, 79.88739%)" offset="0.320313"/><stop stop-opacity="1" stop-color="rgb(22.084045%, 56.982422%, 80.062866%)" offset="0.328125"/><stop stop-opacity="1" stop-color="rgb(22.134399%, 57.246399%, 80.239868%)" offset="0.335938"/><stop stop-opacity="1" stop-color="rgb(22.186279%, 57.50885%, 80.415344%)" offset="0.34375"/><stop stop-opacity="1" stop-color="rgb(22.236633%, 57.772827%, 80.592346%)" offset="0.351563"/><stop stop-opacity="1" stop-color="rgb(22.288513%, 58.035278%, 80.767822%)" offset="0.359375"/><stop stop-opacity="1" stop-color="rgb(22.340393%, 58.299255%, 80.944824%)" offset="0.367188"/><stop stop-opacity="1" stop-color="rgb(22.390747%, 58.561707%, 81.1203%)" offset="0.375"/><stop stop-opacity="1" stop-color="rgb(22.442627%, 58.825684%, 81.297302%)" offset="0.382812"/><stop stop-opacity="1" stop-color="rgb(22.494507%, 59.088135%, 81.474304%)" offset="0.390625"/><stop stop-opacity="1" stop-color="rgb(22.544861%, 59.350586%, 81.64978%)" offset="0.398438"/><stop stop-opacity="1" stop-color="rgb(22.596741%, 59.614563%, 81.826782%)" offset="0.40625"/><stop stop-opacity="1" stop-color="rgb(22.647095%, 59.877014%, 82.002258%)" offset="0.414062"/><stop stop-opacity="1" stop-color="rgb(22.698975%, 60.140991%, 82.17926%)" offset="0.421875"/><stop stop-opacity="1" stop-color="rgb(22.750854%, 60.403442%, 82.354736%)" offset="0.429687"/><stop stop-opacity="1" stop-color="rgb(22.801208%, 60.667419%, 82.531738%)" offset="0.4375"/><stop stop-opacity="1" stop-color="rgb(22.853088%, 60.929871%, 82.707214%)" offset="0.445312"/><stop stop-opacity="1" stop-color="rgb(22.904968%, 61.193848%, 82.884216%)" offset="0.453125"/><stop stop-opacity="1" stop-color="rgb(22.955322%, 61.456299%, 83.059692%)" offset="0.460937"/><stop stop-opacity="1" stop-color="rgb(23.007202%, 61.71875%, 83.236694%)" offset="0.46875"/><stop stop-opacity="1" stop-color="rgb(23.057556%, 61.982727%, 83.413696%)" offset="0.476562"/><stop stop-opacity="1" stop-color="rgb(23.109436%, 62.245178%, 83.589172%)" offset="0.484375"/><stop stop-opacity="1" stop-color="rgb(23.161316%, 62.509155%, 83.766174%)" offset="0.492188"/><stop stop-opacity="1" stop-color="rgb(23.21167%, 62.771606%, 83.94165%)" offset="0.5"/><stop stop-opacity="1" stop-color="rgb(23.26355%, 63.035583%, 84.118652%)" offset="0.507812"/><stop stop-opacity="1" stop-color="rgb(23.31543%, 63.298035%, 84.294128%)" offset="0.515625"/><stop stop-opacity="1" stop-color="rgb(23.365784%, 63.562012%, 84.47113%)" offset="0.523438"/><stop stop-opacity="1" stop-color="rgb(23.417664%, 63.824463%, 84.646606%)" offset="0.53125"/><stop stop-opacity="1" stop-color="rgb(23.468018%, 64.08844%, 84.823608%)" offset="0.539062"/><stop stop-opacity="1" stop-color="rgb(23.519897%, 64.350891%, 84.999084%)" offset="0.546875"/><stop stop-opacity="1" stop-color="rgb(23.571777%, 64.613342%, 85.176086%)" offset="0.554688"/><stop stop-opacity="1" stop-color="rgb(23.622131%, 64.877319%, 85.351562%)" offset="0.5625"/><stop stop-opacity="1" stop-color="rgb(23.674011%, 65.139771%, 85.528564%)" offset="0.570312"/><stop stop-opacity="1" stop-color="rgb(23.725891%, 65.403748%, 85.705566%)" offset="0.578125"/><stop stop-opacity="1" stop-color="rgb(23.776245%, 65.666199%, 85.881042%)" offset="0.585938"/><stop stop-opacity="1" stop-color="rgb(23.828125%, 65.930176%, 86.058044%)" offset="0.59375"/><stop stop-opacity="1" stop-color="rgb(23.880005%, 66.192627%, 86.233521%)" offset="0.601563"/><stop stop-opacity="1" stop-color="rgb(23.930359%, 66.456604%, 86.410522%)" offset="0.609375"/><stop stop-opacity="1" stop-color="rgb(23.982239%, 66.719055%, 86.585999%)" offset="0.617188"/><stop stop-opacity="1" stop-color="rgb(24.032593%, 66.981506%, 86.763%)" offset="0.625"/><stop stop-opacity="1" stop-color="rgb(24.084473%, 67.245483%, 86.938477%)" offset="0.632813"/><stop stop-opacity="1" stop-color="rgb(24.136353%, 67.507935%, 87.115479%)" offset="0.640625"/><stop stop-opacity="1" stop-color="rgb(24.186707%, 67.771912%, 87.290955%)" offset="0.648438"/><stop stop-opacity="1" stop-color="rgb(24.238586%, 68.034363%, 87.467957%)" offset="0.65625"/><stop stop-opacity="1" stop-color="rgb(24.290466%, 68.29834%, 87.644958%)" offset="0.664063"/><stop stop-opacity="1" stop-color="rgb(24.34082%, 68.560791%, 87.820435%)" offset="0.671875"/><stop stop-opacity="1" stop-color="rgb(24.3927%, 68.824768%, 87.997437%)" offset="0.679688"/><stop stop-opacity="1" stop-color="rgb(24.443054%, 69.087219%, 88.172913%)" offset="0.6875"/><stop stop-opacity="1" stop-color="rgb(24.494934%, 69.351196%, 88.349915%)" offset="0.695312"/><stop stop-opacity="1" stop-color="rgb(24.546814%, 69.613647%, 88.525391%)" offset="0.697879"/><stop stop-opacity="1" stop-color="rgb(24.572754%, 69.744873%, 88.613892%)" offset="0.703125"/><stop stop-opacity="1" stop-color="rgb(24.597168%, 69.876099%, 88.702393%)" offset="0.710938"/><stop stop-opacity="1" stop-color="rgb(24.649048%, 70.140076%, 88.877869%)" offset="0.71875"/><stop stop-opacity="1" stop-color="rgb(24.700928%, 70.402527%, 89.054871%)" offset="0.726562"/><stop stop-opacity="1" stop-color="rgb(24.751282%, 70.666504%, 89.230347%)" offset="0.734375"/><stop stop-opacity="1" stop-color="rgb(24.803162%, 70.928955%, 89.407349%)" offset="0.742188"/><stop stop-opacity="1" stop-color="rgb(24.853516%, 71.192932%, 89.582825%)" offset="0.75"/><stop stop-opacity="1" stop-color="rgb(24.905396%, 71.455383%, 89.759827%)" offset="0.757812"/><stop stop-opacity="1" stop-color="rgb(24.957275%, 71.71936%, 89.936829%)" offset="0.765625"/><stop stop-opacity="1" stop-color="rgb(25.007629%, 71.981812%, 90.112305%)" offset="0.773438"/><stop stop-opacity="1" stop-color="rgb(25.059509%, 72.244263%, 90.289307%)" offset="0.78125"/><stop stop-opacity="1" stop-color="rgb(25.111389%, 72.50824%, 90.464783%)" offset="0.789062"/><stop stop-opacity="1" stop-color="rgb(25.161743%, 72.770691%, 90.641785%)" offset="0.796875"/><stop stop-opacity="1" stop-color="rgb(25.213623%, 73.034668%, 90.817261%)" offset="0.804688"/><stop stop-opacity="1" stop-color="rgb(25.263977%, 73.297119%, 90.994263%)" offset="0.8125"/><stop stop-opacity="1" stop-color="rgb(25.315857%, 73.561096%, 91.169739%)" offset="0.820312"/><stop stop-opacity="1" stop-color="rgb(25.367737%, 73.823547%, 91.346741%)" offset="0.828125"/><stop stop-opacity="1" stop-color="rgb(25.418091%, 74.087524%, 91.522217%)" offset="0.835937"/><stop stop-opacity="1" stop-color="rgb(25.469971%, 74.349976%, 91.699219%)" offset="0.84375"/><stop stop-opacity="1" stop-color="rgb(25.497437%, 74.490356%, 91.793823%)" offset="0.875"/><stop stop-opacity="1" stop-color="rgb(25.498962%, 74.499512%, 91.799927%)" offset="1"/></linearGradient></defs><g clip-path="url(#3a2546d0eb)"><g clip-path="url(#974d7a9f07)"><path fill="url(#54d8597f33)" d="M 105.148438 84.289062 L 105.148438 290.457031 L 270.148438 290.457031 L 270.148438 84.289062 Z M 105.148438 84.289062 " fill-rule="nonzero"/></g></g></svg>